<svg width="100" height="75" viewBox="0 0 120 90" fill="none" xmlns="http://www.w3.org/2000/svg">
  <rect x="10" y="8" width="100" height="12" rx="2" fill="currentColor"/>
  <rect x="25" y="20" width="12" height="62" rx="2" fill="currentColor"/>
  <rect x="75" y="20" width="12" height="45" rx="2" fill="currentColor"/>
  <path fill="currentColor" fill-rule="evenodd" d="M71 55h20a3 3 0 0 1 3 3v10a3 3 0 0 1-3 3H71a3 3 0 0 1-3-3V58a3 3 0 0 1 3-3Zm5 4h3v8h-3v-8Zm6 0h3v8h-3v-8Z"/>
  <circle cx="18" cy="14" r="2" fill="currentColor"/>
  <circle cx="102" cy="14" r="2" fill="currentColor"/>
</svg>